<?xml version="1.0" encoding="utf-8"?>
<!-- Generator: Adobe Illustrator 16.0.0, SVG Export Plug-In . SVG Version: 6.00 Build 0)  -->
<!DOCTYPE svg PUBLIC "-//W3C//DTD SVG 1.1//EN" "http://www.w3.org/Graphics/SVG/1.1/DTD/svg11.dtd">
<svg version="1.1" id="Layer_1" xmlns="http://www.w3.org/2000/svg" xmlns:xlink="http://www.w3.org/1999/xlink" x="0px" y="0px"
	 width="266.667px" height="122.098px" viewBox="0 0 266.667 122.098" enable-background="new 0 0 266.667 122.098"
	 xml:space="preserve">
<g>
	<path fill="#008B76" d="M154.298,31.554V17.547c0-7.302,3.246-10.548,9.229-10.548h0.362h0.118h0.363
		c4.848,0,7.896,2.132,8.881,6.822l0.16,0.961c0.23,1.4,1.396,2.35,2.695,2.765c0.396,0.127,0.811,0.214,1.248,0.214
		s0.854-0.087,1.248-0.214c1.6-0.51,2.768-1.957,2.855-3.705c-0.086-0.64-0.191-1.254-0.32-1.843C179.186,3.061,172.375,0,165.184,0
		h-2.468c-8.521,0-16.532,4.263-16.532,17.547v14.008h-10.563h-7.994h-0.158l-16.126,43.71L95.036,34.345l-0.277-0.701
		c-0.634-1.218-1.881-2.06-3.34-2.09c-0.028,0-0.055-0.009-0.082-0.009c-0.028,0-0.055,0.009-0.082,0.009
		c-2.1,0.044-3.788,1.754-3.788,3.861c0,0.066,0.016,0.127,0.019,0.193l0.989,2.393l19.13,46.291h8.099l18.415-48.761h12.066v48.761
		h8.113V35.532h27.418v-3.978H154.298z"/>
	<polygon fill="#008B76" points="17.031,100.646 9.083,120.028 1.136,100.646 0,100.646 8.638,121.569 9.53,121.569 18.166,100.646 
			"/>
	<path fill="#008B76" d="M22.865,100.646h1.014v20.923h-1.014V100.646z M23.392,93.632c0.688,0,1.217,0.526,1.217,1.177
		c0,0.688-0.528,1.217-1.217,1.217s-1.216-0.528-1.216-1.217C22.176,94.158,22.703,93.632,23.392,93.632"/>
	<path fill="#008B76" d="M47.469,104.498c-0.974-1.095-3.163-3.324-7.178-3.324c-5.149,0-9.487,4.299-9.487,9.935
		c0,5.434,4.419,9.935,9.487,9.935c4.38,0,6.569-2.595,7.34-3.607l0.486,0.973c-0.526,0.812-3.082,3.69-7.826,3.69
		c-5.961,0-10.582-4.866-10.582-10.989c0-6.082,4.662-10.988,10.582-10.988c4.421,0,6.894,2.435,7.785,3.487L47.469,104.498z"/>
	<path fill="#008B76" d="M54.271,96.267h1.055v4.379h5.23v0.934h-5.23v12.854c0,4.42,0.933,6.365,4.461,6.365
		c0.283,0,0.688-0.041,0.973-0.081v0.975c0,0-0.406,0.121-1.419,0.121c-3.325,0-5.069-2.271-5.069-6.487v-13.746h-2.676v-0.934
		h2.676L54.271,96.267L54.271,96.267z"/>
	<path fill="#008B76" d="M83.186,111.107c0-5.556-3.974-9.976-9.57-9.976c-5.595,0-9.568,4.42-9.568,9.976s3.974,9.976,9.568,9.976
		C79.212,121.083,83.186,116.663,83.186,111.107 M84.24,111.107c0,6.244-4.541,10.989-10.624,10.989
		c-6.081,0-10.622-4.745-10.622-10.989c0-6.243,4.541-10.988,10.622-10.988C79.699,100.119,84.24,104.864,84.24,111.107"/>
	<path fill="#008B76" d="M97.997,101.174c-5.15,0-6.691,4.38-6.691,9.325v11.07h-1.013v-20.923h1.013v4.42
		c0.69-2.798,3.123-4.947,6.691-4.947V101.174z"/>
	<path fill="#008B76" d="M103.125,100.646h1.014v20.923h-1.014V100.646z M103.652,93.632c0.689,0,1.218,0.526,1.218,1.177
		c0,0.688-0.528,1.217-1.218,1.217c-0.688,0-1.216-0.528-1.216-1.217C102.436,94.158,102.963,93.632,103.652,93.632"/>
	<path fill="#008B76" d="M117.6,121.083c4.015,0,6.772-2.636,6.772-5.88c0-3.325-2.96-5.717-6.772-5.717
		c-4.136,0-6.771,2.595-6.771,5.717C110.829,118.285,113.383,121.083,117.6,121.083 M117.6,108.472c3.406,0,5.596,1.621,6.65,3.203
		v-4.501c0-4.015-2.556-6.042-6.285-6.042c-2.96,0-5.109,1.056-6.69,2.027l-0.527-0.892c1.176-0.689,3.974-2.149,7.178-2.149
		c4.825,0,7.339,2.798,7.339,7.096v14.354h-0.811l-0.203-2.919c-0.974,1.622-3.122,3.446-6.65,3.446
		c-4.744,0-7.826-3.042-7.826-6.935C109.774,111.391,113.059,108.472,117.6,108.472"/>
	<path fill="#008B76" d="M132.671,103.201h-2.353v-2.717h2.353v-1.096c0-5.312,3.204-7.016,6.608-7.016
		c0.69,0,1.338,0.082,1.338,0.082v2.797c0,0-0.525-0.081-1.013-0.081c-2.392,0-3.688,1.298-3.688,4.218v1.096h4.5v2.717h-4.5v18.368
		h-3.245V103.201z"/>
	<path fill="#008B76" d="M159.83,109.324c-0.203-4.379-3.244-6.61-6.73-6.61c-3.445,0-6.527,2.637-6.771,6.61H159.83z
		 M153.098,99.957c6.204,0,10.017,4.46,10.017,10.786c0,0.122,0,0.567-0.041,0.973h-16.908c0.041,4.704,3.203,7.542,7.582,7.542
		c3.568,0,5.556-1.864,6.568-3.283l2.109,1.541c-1.178,1.986-3.934,4.582-8.719,4.582c-6.406,0-10.826-4.501-10.826-10.989
		C142.88,104.377,147.503,99.957,153.098,99.957"/>
	<path fill="#008B76" d="M168.404,100.483h3.203v21.086h-3.203V100.483z M169.985,92.86c1.259,0,2.229,0.974,2.229,2.189
		c0,1.258-0.973,2.229-2.229,2.229c-1.216,0-2.19-0.973-2.19-2.229C167.794,93.834,168.769,92.86,169.985,92.86"/>
	<path fill="#008B76" d="M178.82,116.135c0.893,1.662,2.393,3.244,5.271,3.244c2.109,0,3.893-1.217,3.893-3.365
		c0-4.865-10.583-3.202-10.583-10.341c0-3.566,2.96-5.717,6.771-5.717c3.934,0,5.961,2.475,6.529,4.056l-2.353,1.338
		c-0.567-1.136-1.663-2.718-4.379-2.718c-1.947,0-3.488,1.097-3.488,2.921c0,4.743,10.624,2.96,10.624,10.3
		c0,3.729-3.082,6.244-7.177,6.244c-4.421,0-6.407-2.516-7.339-4.501L178.82,116.135z"/>
	<path fill="#008B76" d="M196.912,96.064h3.205v4.42h4.621v2.717h-4.621v10.866c0,3.935,1.135,4.866,3.891,4.866
		c0.406,0,0.894-0.04,0.894-0.04v2.838c0,0-0.853,0.122-1.946,0.122c-4.217,0-6.041-2.757-6.041-7.502v-11.15h-2.474v-2.717h2.474
		v-4.42H196.912z"/>
	<path fill="#008B76" d="M226.326,108.392v13.178h-3.205v-13.3c0-3.365-2.106-5.395-4.986-5.395c-3.243,0-5.475,2.395-5.475,5.88
		v12.813h-3.203v-21.085h3.162v3.041c1.016-1.906,3.366-3.568,6.286-3.568C223.811,99.957,226.326,103.606,226.326,108.392"/>
	<path fill="#008B76" d="M248.548,109.324c-0.203-4.379-3.244-6.61-6.731-6.61c-3.446,0-6.528,2.637-6.772,6.61H248.548z
		 M241.817,99.957c6.204,0,10.017,4.46,10.017,10.786c0,0.122,0,0.567-0.041,0.973h-16.908c0.041,4.704,3.201,7.542,7.582,7.542
		c3.568,0,5.556-1.864,6.568-3.283l2.109,1.541c-1.178,1.986-3.936,4.582-8.719,4.582c-6.406,0-10.826-4.501-10.826-10.989
		C231.599,104.377,236.222,99.957,241.817,99.957"/>
	<path fill="#008B76" d="M266.667,103.16c-4.826,0-6.244,3.812-6.244,8.312v10.097h-3.205v-21.085h3.164v3.526
		c0.729-2.107,3.082-4.056,6.285-4.056V103.16z"/>
</g>
</svg>
